# xmcd
# Track frame offsets:
# 150
# 11512
# 26699
# 42636
# 59773
# 77435
# 91947
# 108784
# 126296
# 142908
# 158770
# 176357
# 194469
# 211006
# 228218
# 241080
# 258217
# 272354
# 287991
#
# Disc length: 4040 seconds
# Revision: 4
# Processed by: cddbd v1.5.2PL0 Copyright (c) Steve Scherf et al.
# Submitted via: VisiTrax 2.11.1.266 - For more info visit www.synapsa.com
#
DISCID=f50fc613
DTITLE=Various Artist - Promo Only Country Radio - January 2009
DYEAR=2009
DGENRE=Country
TTITLE0=Hank III - Six Pack of Beer (Album Version)
TTITLE1=Taylor Swift - White Horse
TTITLE2=Rodney Atkins - It's America
TTITLE3=Keith Urban - Sweet Thing
TTITLE4=Jessica Andrews - Everything
TTITLE5=George Strait - River of Love
TTITLE6=Kellie Pickler - Best Days of Your Life
TTITLE7=Josh Gracin - Telluride (Album Version)
TTITLE8=Jason Aldean - She's Country
TTITLE9=Emerson Drive - Belongs to You
TTITLE10=Martina McBride - Ride
TTITLE11=Little Big Town - Good Lord Willing (Album Version)
TTITLE12=Austin Law - Neon Halo
TTITLE13=John Rich - Another You
TTITLE14=Desiree G. Stephens - Treat Me Like a Lady
TTITLE15=Robin and Linda Williams - Going, Going Gone (Album Version)
TTITLE16=Donnie Vondra - If I Didn't Love You
TTITLE17=Joan Baez - God is God
TTITLE18=Ernie Oldfield - Sad Moments (Album Version)
EXTD=
EXTT0=
EXTT1=
EXTT2=
EXTT3=
EXTT4=
EXTT5=
EXTT6=
EXTT7=
EXTT8=
EXTT9=
EXTT10=
EXTT11=
EXTT12=
EXTT13=
EXTT14=
EXTT15=
EXTT16=
EXTT17=
EXTT18=
PLAYORDER=
